<svg xmlns="http://www.w3.org/2000/svg" xmlns:xlink="http://www.w3.org/1999/xlink" width="1080" zoomAndPan="magnify"
     viewBox="0 0 810 809.999993" height="1080" preserveAspectRatio="xMidYMid meet" version="1.0">
    <defs>
        <g/>
        <clipPath id="4b053bee8e">
            <rect x="0" width="549" y="0" height="810"/>
        </clipPath>
    </defs>
<!--    <rect x="-81" width="972" fill="#ffffff" y="-80.999999" height="971.999992" fill-opacity="1"/>-->
<!--    <rect x="-81" width="972" fill="#ffffff" y="-80.999999" height="971.999992" fill-opacity="1"/>-->
    <g transform="matrix(1, 0, 0, 1, 124, 0.000000000000039746)">
        <g clip-path="url(#4b053bee8e)">
            <g fill="#545454" fill-opacity="1">
                <g transform="translate(31.97272, 708.297046)">
                    <g>
                        <path d="M -12.625 2.90625 C -17.8125 2.90625 -21.375 0.800781 -23.3125 -3.40625 C -25.25 -7.613281 -25.25 -12.628906 -23.3125 -18.453125 C -20.71875 -28.160156 -17.640625 -33.984375 -14.078125 -35.921875 C -10.523438 -37.867188 -4.210938 -38.84375 4.859375 -38.84375 C 23.628906 -38.84375 38.359375 -42.242188 49.046875 -49.046875 C 59.734375 -55.847656 67.34375 -64.265625 71.875 -74.296875 C 76.40625 -84.335938 80.9375 -97.453125 85.46875 -113.640625 L 174.828125 -499.21875 C 178.054688 -515.394531 179.671875 -528.5 179.671875 -538.53125 C 179.671875 -548.570312 175.945312 -556.992188 168.5 -563.796875 C 161.0625 -570.597656 147.953125 -574 129.171875 -574 L 123.34375 -574 C 116.875 -574 112.503906 -575.128906 110.234375 -577.390625 C 107.960938 -579.660156 107.476562 -585.328125 108.78125 -594.390625 C 110.71875 -600.210938 113.628906 -605.226562 117.515625 -609.4375 C 121.398438 -613.644531 125.929688 -615.75 131.109375 -615.75 C 173.203125 -613.8125 211.40625 -612.84375 245.71875 -612.84375 C 284.570312 -612.84375 325.363281 -613.8125 368.09375 -615.75 C 373.925781 -615.75 377.8125 -613.644531 379.75 -609.4375 C 381.695312 -605.226562 381.695312 -600.210938 379.75 -594.390625 C 377.164062 -584.679688 373.929688 -578.851562 370.046875 -576.90625 C 366.160156 -574.96875 360.007812 -574 351.59375 -574 C 332.8125 -574 318.078125 -570.597656 307.390625 -563.796875 C 296.710938 -556.992188 289.109375 -548.570312 284.578125 -538.53125 C 280.046875 -528.5 275.507812 -515.394531 270.96875 -499.21875 L 178.703125 -99.0625 C 176.765625 -85.46875 175.957031 -74.945312 176.28125 -67.5 C 176.601562 -60.050781 180.8125 -53.25 188.90625 -47.09375 C 197 -40.945312 211.40625 -38.195312 232.125 -38.84375 L 319.53125 -38.84375 C 342.84375 -39.5 360.972656 -43.222656 373.921875 -50.015625 C 386.878906 -56.816406 398.535156 -67.335938 408.890625 -81.578125 C 419.253906 -95.828125 432.851562 -119.140625 449.6875 -151.515625 C 456.8125 -163.171875 468.789062 -167.703125 485.625 -165.109375 C 491.445312 -163.816406 496.460938 -161.226562 500.671875 -157.34375 C 504.878906 -153.457031 506.015625 -148.601562 504.078125 -142.78125 L 456.484375 -20.390625 C 452.597656 -11.972656 448.390625 -6.46875 443.859375 -3.875 C 439.328125 -1.289062 432.53125 0 423.46875 0 L 104.890625 0 C 69.921875 0 30.75 0.96875 -12.625 2.90625 Z M -12.625 2.90625 "/>
                    </g>
                </g>
            </g>
        </g>
    </g>
</svg>